#!OML:ASF H:\Pregnant\Project 1\Capture day 1\Session 1\femalepreg.ASF
:FULLY-SPECIFIED
:DEGREES
705
root -6.01825 15.4509 42.2176 -155.637 2.50402 182.26
lowerback -16.5921 0.170436 -10.6292
upperback -3.98903 3.07666 -3.60169
thorax 4.70538 1.77672 2.79743
lowerneck -15.7814 5.79537 4.29727
upperneck 40.8906 0.666407 4.06347
head 17.9513 -0.0207101 0.757636
rclavicle 1.11319e-014 -3.65764e-014
rhumerus -36.7654 3.12965 -84.7466
rradius 38.8483
rwrist -1.95628
rhand -16.585 -13.3617
rfingers 7.12502
rthumb 9.63576 -43.1214
lclavicle 1.11319e-014 -3.65764e-014
lhumerus -36.7339 -6.57338 72.9438
lradius 41.7926
lwrist 44.3978
lhand -30.0111 -6.34525
lfingers 7.12502
lthumb -3.32814 23.6085
rfemur -56.4353 2.48795 32.3264
rtibia 126.919
rfoot -12.7211 -8.36962
rtoes -12.7225
lfemur -33.718 -10.0192 -21.9055
ltibia 14.2888
lfoot -3.55618 -0.0603122
ltoes 6.30812
706
root -6.01952 15.4483 42.2083 -155.705 2.4885 182.152
lowerback -16.6493 0.149854 -10.6655
upperback -4.03509 3.07419 -3.62569
thorax 4.68715 1.78298 2.79289
lowerneck -15.8249 5.78048 4.29982
upperneck 40.8885 0.629703 4.10242
head 17.9625 -0.0290159 0.768892
rclavicle -6.36111e-015 -1.11319e-014
rhumerus -36.8401 3.17277 -84.712
rradius 39.0599
rwrist -2.00712
rhand -16.6524 -13.3673
rfingers 7.12502
rthumb 9.57074 -43.1299
lclavicle -6.36111e-015 -1.11319e-014
lhumerus -36.8269 -6.34156 72.7211
lradius 41.5998
lwrist 44.5105
lhand -30.139 -6.30027
lfingers 7.12502
lthumb -3.45173 23.6515
rfemur -56.618 2.50103 32.4081
rtibia 127.642
rfoot -12.8033 -8.41524
rtoes -12.8858
lfemur -33.489 -9.932 -22.0988
ltibia 14.0767
lfoot -3.48543 -0.284392
ltoes 6.29705
707
root -6.02036 15.4456 42.1991 -155.781 2.47053 182.041
lowerback -16.7139 0.120168 -10.7195
upperback -4.0634 3.06223 -3.63907
thorax 4.69151 1.78162 2.80824
lowerneck -15.8558 5.75052 4.28343
upperneck 40.8708 0.582533 4.13515
head 17.9605 -0.045046 0.778152
rclavicle -1.66979e-014 6.99722e-014
rhumerus -36.8838 3.2332 -84.667
rradius 39.2681
rwrist -2.0579
rhand -16.7211 -13.3759
rfingers 7.12502
rthumb 9.50449 -43.1416
lclavicle -1.66979e-014 6.99722e-014
lhumerus -36.894 -6.09835 72.5142
lradius 41.3693
lwrist 44.6292
lhand -30.2818 -6.27602
lfingers 7.12502
lthumb -3.58964 23.6735
rfemur -56.8316 2.53657 32.4513
rtibia 128.21
rfoot -12.8868 -8.46739
rtoes -13.07
lfemur -33.2697 -9.87028 -22.2825
ltibia 13.8954
lfoot -3.42308 -0.473273
ltoes 6.26537
708
root -6.02088 15.4423 42.1901 -155.866 2.44957 181.926
lowerback -16.7866 0.0741081 -10.8061
upperback -4.07096 3.03146 -3.62483
thorax 4.72122 1.76698 2.86802
lowerneck -15.8952 5.72333 4.23718
upperneck 40.8456 0.561904 4.15411
head 17.9546 -0.0554869 0.791834
rclavicle 4.37326e-015 3.97569e-014
rhumerus -36.8908 3.34435 -84.5951
rradius 39.4808
rwrist -2.12753
rhand -16.7807 -13.3961
rfingers 7.12502
rthumb 9.44695 -43.1643
lclavicle 4.37326e-015 3.97569e-014
lhumerus -36.9364 -5.80973 72.3401
lradius 41.0942
lwrist 44.7465
lhand -30.4446 -6.24665
lfingers 7.12502
lthumb -3.74684 23.7002
rfemur -57.0818 2.59996 32.4506
rtibia 128.621
rfoot -12.9843 -8.50958
rtoes -13.1473
lfemur -33.0664 -9.83395 -22.4591
ltibia 13.7563
lfoot -3.37375 -0.628994
ltoes 6.21987
709
root -6.02109 15.438 42.1816 -155.959 2.41986 181.808
lowerback -16.8549 0.0195997 -10.91
upperback -4.07161 2.99058 -3.60002
thorax 4.75579 1.74611 2.94663
lowerneck -15.8916 5.69471 4.20346
upperneck 40.7903 0.552406 4.15258
head 17.9197 -0.0618385 0.794956
rclavicle -1.19271e-014 -2.38542e-014
rhumerus -36.8888 3.46784 -84.5107
rradius 39.6944
rwrist -2.2093
rhand -16.8316 -13.4482
rfingers 7.12502
rthumb 9.39782 -43.2187
lclavicle -1.19271e-014 -2.38542e-014
lhumerus -36.9683 -5.52413 72.1887
lradius 40.7806
lwrist 44.8774
lhand -30.632 -6.19909
lfingers 7.12502
lthumb -3.92778 23.7445
rfemur -57.366 2.68364 32.407
rtibia 128.875
rfoot -13.0687 -8.51766
rtoes -12.9939
lfemur -32.8906 -9.8077 -22.6367
ltibia 13.6814
lfoot -3.35657 -0.771108
ltoes 6.18968
710
root -6.02122 15.4322 42.1735 -156.069 2.38405 181.691
lowerback -16.9113 -0.038328 -11.0231
upperback -4.06498 2.94332 -3.56619
thorax 4.79167 1.72086 3.03831
lowerneck -15.8493 5.66552 4.1831
upperneck 40.7116 0.551684 4.13259
head 17.8612 -0.0649964 0.787975
rclavicle -2.54444e-014 -2.06736e-014
rhumerus -36.8806 3.60255 -84.4158
rradius 39.9056
rwrist -2.30037
rhand -16.8844 -13.5259
rfingers 7.12502
rthumb 9.3469 -43.2986
lclavicle -2.54444e-014 -2.06736e-014
lhumerus -36.9891 -5.25048 72.0617
lradius 40.426
lwrist 45.0147
lhand -30.8131 -6.14838
lfingers 7.12502
lthumb -4.10271 23.7919
rfemur -57.6697 2.79166 32.3183
rtibia 128.966
rfoot -13.1831 -8.50069
rtoes -12.8045
lfemur -32.7474 -9.78647 -22.8142
ltibia 13.6963
lfoot -3.37977 -0.900287
ltoes 6.18091
711
root -6.02128 15.4245 42.1657 -156.2 2.34296 181.576
lowerback -16.9487 -0.0931111 -11.1331
upperback -4.05341 2.89638 -3.53449
thorax 4.82304 1.69532 3.12538
lowerneck -15.7735 5.63136 4.17621
upperneck 40.6178 0.543221 4.10638
head 17.7858 -0.0706998 0.773398
rclavicle 2.66371e-014 -4.45278e-014
rhumerus -36.8702 3.72319 -84.3192
rradius 40.1112
rwrist -2.40118
rhand -16.9312 -13.6258
rfingers 7.12502
rthumb 9.30174 -43.4006
lclavicle 2.66371e-014 -4.45278e-014
lhumerus -36.9938 -5.00915 71.9488
lradius 40.0282
lwrist 45.1643
lhand -31.0023 -6.07006
lfingers 7.12502
lthumb -4.28531 23.8666
rfemur -57.9915 2.9265 32.1852
rtibia 128.896
rfoot -13.3174 -8.45099
rtoes -12.5133
lfemur -32.6395 -9.74948 -23.0017
ltibia 13.8179
lfoot -3.4522 -1.03616
ltoes 6.20514
712
root -6.02141 15.415 42.1578 -156.357 2.29964 181.466
lowerback -16.9606 -0.141465 -11.234
upperback -4.03832 2.85185 -3.50646
thorax 4.84498 1.67088 3.20309
lowerneck -15.6842 5.58642 4.16618
upperneck 40.5364 0.508663 4.0847
head 17.7148 -0.08919 0.755873
rclavicle -1.51076e-014 7.95139e-015
rhumerus -36.8597 3.82159 -84.2225
rradius 40.3061
rwrist -2.50175
rhand -16.9793 -13.7167
rfingers 7.12502
rthumb 9.25532 -43.4935
lclavicle -1.51076e-014 7.95139e-015
lhumerus -36.984 -4.80635 71.8488
lradius 39.5864
lwrist 45.3262
lhand -31.1944 -5.97659
lfingers 7.12502
lthumb -4.47084 23.9562
rfemur -58.3178 3.08701 32.0058
rtibia 128.656
rfoot -13.4768 -8.35823
rtoes -12.169
lfemur -32.5629 -9.7062 -23.1908
ltibia 14.0507
lfoot -3.57978 -1.16245
ltoes 6.24895
713
root -6.02136 15.404 42.1499 -156.53 2.25128 181.362
lowerback -16.9515 -0.186459 -11.3281
upperback -4.01888 2.80701 -3.48253
thorax 4.86101 1.64604 3.27188
lowerneck -15.6079 5.53407 4.14503
upperneck 40.4838 0.451403 4.06992
head 17.664 -0.119866 0.739224
rclavicle -3.16068e-014 5.88403e-014
rhumerus -36.838 3.8907 -84.126
rradius 40.4865
rwrist -2.59874
rhand -17.0168 -13.8054
rfingers 7.12502
rthumb 9.2191 -43.5838
lclavicle -3.16068e-014 5.88403e-014
lhumerus -36.9505 -4.64026 71.7611
lradius 39.1028
lwrist 45.4936
lhand -31.3857 -5.87167
lfingers 7.12502
lthumb -4.65555 24.0572
rfemur -58.6592 3.26841 31.7796
rtibia 128.243
rfoot -13.6504 -8.2181
rtoes -11.8095
lfemur -32.525 -9.65905 -23.3795
ltibia 14.3898
lfoot -3.75594 -1.28058
ltoes 6.32989
714
root -6.02115 15.3917 42.1419 -156.715 2.19564 181.262
lowerback -16.9236 -0.231735 -11.4178
upperback -3.99797 2.75728 -3.45749
thorax 4.86942 1.61882 3.33777
lowerneck -15.5347 5.47535 4.11415
upperneck 40.4483 0.37908 4.05681
head 17.6239 -0.159605 0.722098
rclavicle -1.98785e-016 6.36111e-015
rhumerus -36.8043 3.93848 -84.0253
rradius 40.649
rwrist -2.69602
rhand -17.0425 -13.8843
rfingers 7.12502
rthumb 9.19433 -43.6639
lclavicle -1.98785e-016 6.36111e-015
lhumerus -36.8974 -4.50185 71.6903
lradius 38.5774
lwrist 45.6555
lhand -31.5735 -5.75728
lfingers 7.12502
lthumb -4.83689 24.1675
rfemur -59.0162 3.46211 31.5111
rtibia 127.654
rfoot -13.8311 -8.04108
rtoes -11.4366
lfemur -32.5172 -9.61337 -23.5641
ltibia 14.8074
lfoot -3.96493 -1.39059
ltoes 6.40043
715
root -6.02058 15.3782 42.134 -156.902 2.12836 181.167
lowerback -16.8835 -0.280339 -11.5031
upperback -3.97834 2.70052 -3.43373
thorax 4.87133 1.58861 3.3981
lowerneck -15.4624 5.41998 4.08142
upperneck 40.4289 0.304355 4.04688
head 17.5935 -0.201675 0.706241
rclavicle 2.96189e-014 -6.83819e-014
rhumerus -36.7649 3.96565 -83.9278
rradius 40.7941
rwrist -2.78571
rhand -17.0679 -13.9467
rfingers 7.12502
rthumb 9.16986 -43.7273
lclavicle 2.96189e-014 -6.83819e-014
lhumerus -36.8265 -4.39457 71.6332
lradius 38.0173
lwrist 45.8007
lhand -31.7382 -5.66736
lfingers 7.12502
lthumb -4.99597 24.2537
rfemur -59.4022 3.65928 31.206
rtibia 126.895
rfoot -14.0271 -7.84271
rtoes -11.185
lfemur -32.5444 -9.57613 -23.7407
ltibia 15.2917
lfoot -4.20456 -1.49054
ltoes 6.48298
